15_ID_stride2.mot
nRows=10
nColumns=38

name 15_ID_stride2.mot
datacolumns 38
datarows 10
range 0.5450000000 0.5900000000
endheader
time	pelvis_tilt_moment	pelvis_list_moment	pelvis_rotation_moment	pelvis_tx_force	pelvis_ty_force	pelvis_tz_force	hip_flexion_r_moment	hip_adduction_r_moment	hip_rotation_r_moment	knee_angle_r_moment	ankle_angle_r_moment	subtalar_angle_r_moment	mtp_angle_r_moment	hip_flexion_l_moment	hip_adduction_l_moment	hip_rotation_l_moment	knee_angle_l_moment	ankle_angle_l_moment	subtalar_angle_l_moment	mtp_angle_l_moment	lumbar_extension_moment	lumbar_bending_moment	lumbar_rotation_moment	arm_flex_r_moment	arm_add_r_moment	arm_rot_r_moment	elbow_flex_r_moment	pro_sup_r_moment	wrist_flex_r_moment	wrist_dev_r_moment	arm_flex_l_moment	arm_add_l_moment	arm_rot_l_moment	elbow_flex_l_moment	pro_sup_l_moment	wrist_flex_l_moment	wrist_dev_l_moment
        0.5450000000	       32.8951074387	      -14.5204977740	        7.7951362972	      -26.6873925067	      -44.3186500154	       21.6722390250	      -16.6340996636	       -8.9117316936	        1.5759363929	       -1.7446183460	        2.1611404144	       -0.4202992316	        0.1068601423	       -1.4647434961	      -17.3073222903	        0.2991624793	      -18.9020047045	     -134.8916130538	       23.2837105370	       -0.0705165691	       12.3572687470	       -6.2052044269	       32.8827130286	        5.2280114140	        4.6617025496	        3.6650102307	        3.2625828803	        0.0479834434	        0.4501432270	       -0.1778272920	       -1.4708546742	       -2.2191383916	       -2.8822796220	        2.8620498471	       -0.1545708564	       -0.2712179083	       -0.3080334224	
        0.5500000000	       30.1246409913	      -23.4308869841	        5.8293926329	      -36.0018261492	      -44.6614432342	       28.4952764719	      -17.6840084170	      -10.0776648601	        1.5401854049	       -1.9632962408	        2.2087576050	       -0.4417274493	        0.1080349069	       -5.4752853229	      -15.9693105910	       -1.7919825639	      -25.1441755412	     -117.5229640376	       20.1218136796	       -0.0715081470	        7.7218093318	       -8.9155564783	       29.8725503212	        4.6105646555	        4.2635304665	        3.3532562630	        2.6927377733	        0.0507188755	        0.4049146847	       -0.1358733909	       -1.5716821248	       -2.1914021478	       -2.6710497587	        2.2733209516	       -0.1365550545	       -0.2574641913	       -0.2520101959	
        0.5550000000	       26.7410191677	      -21.1442193578	        3.8942597301	      -37.2044773312	      -49.3890584483	       27.3929777754	      -18.2688764331	      -10.9541213294	        1.4009319889	       -2.1186272023	        2.2830244177	       -0.4648681992	        0.1116470871	       -2.3151718652	      -14.0627098313	       -2.0807993056	      -25.1046213869	     -100.0634021710	       17.2959348580	       -0.0682259659	        3.9443798202	      -10.7458380649	       27.1034760258	        3.9120415600	        3.7778486276	        3.0229036997	        2.0938314782	        0.0539356625	        0.3589478946	       -0.0913274406	       -1.8175745957	       -2.0826905246	       -2.4155562041	        1.6477814778	       -0.1169640280	       -0.2414456463	       -0.1921299080	
        0.5600000000	       25.7233179095	       -6.0253433940	        1.3465494606	      -34.5277388593	      -63.5943200639	       18.8476520377	      -18.5812477098	      -11.5147874026	        1.1490847957	       -2.1976241178	        2.3752543895	       -0.4903837364	        0.1175160574	       12.3828558928	      -10.6601414923	       -1.1184199905	      -19.4896193417	      -81.6938003771	       14.7478013559	       -0.0547927009	        0.8718943631	      -11.9353968025	       24.6773895641	        3.1450078999	        3.2156303833	        2.6846303239	        1.4709808447	        0.0579504673	        0.3134832134	       -0.0441534303	       -2.2262954758	       -1.8810026668	       -2.1264384335	        0.9847272329	       -0.0962376602	       -0.2243812222	       -0.1285049575	
        0.5650000000	       26.3104902752	       20.8924074237	       -1.8835668796	      -23.4431738224	      -88.1429575681	        4.6204575795	      -18.7687607977	      -11.8312089486	        0.8090258217	       -2.2292219994	        2.4757555895	       -0.5174964784	        0.1247484141	       35.9318320406	       -5.5489490386	        2.0231438854	       -6.5937094432	      -62.6037784285	       12.3336549240	       -0.0293723147	       -1.7454906912	      -12.7538445205	       22.5512314168	        2.3265818890	        2.5970877034	        2.3448271942	        0.8335065529	        0.0627382091	        0.2689947153	        0.0050453783	       -2.7788369709	       -1.6162363730	       -1.8136840522	        0.2927796223	       -0.0748198202	       -0.2068644606	       -0.0619597748	
        0.5700000000	       27.2236621320	       41.2852254718	       -4.1410796035	      -12.5908750151	     -119.1725079689	       -2.3386110681	      -18.9836104149	      -11.6367371669	        0.3574809730	       -2.2296067313	        2.5703525313	       -0.5428876806	        0.1322447403	       52.2457640716	       -0.4066571648	        4.0700523462	        2.8141567458	      -46.2506929025	       10.1860825708	        0.0072656918	       -4.3333201410	      -13.5135006415	       20.5619168831	        1.4837111463	        1.9602201286	        2.0074922920	        0.2047790143	        0.0676658530	        0.2255056108	        0.0543137395	       -3.3946162153	       -1.3223713774	       -1.4876121156	       -0.3999726604	       -0.0533778264	       -0.1886418817	        0.0052199293	
        0.5750000000	       26.6430861736	       43.1304178462	       -4.2289606841	       -7.9057641236	     -152.1319906510	       -0.4399843367	      -19.2999236456	      -10.8748767506	       -0.2439668640	       -2.2732707329	        2.6492279002	       -0.5637628556	        0.1393255596	       52.5844138217	        3.5495334695	        3.9201145728	        3.0288721947	      -35.2173966363	        8.5436791652	        0.0563853974	       -7.0610144507	      -14.3821947840	       18.5008611674	        0.6353350760	        1.3247989695	        1.6678636220	       -0.3844061088	        0.0717667116	        0.1824661964	        0.1008444721	       -4.0123250207	       -1.0037377582	       -1.1457821395	       -1.0565290943	       -0.0323995501	       -0.1682522174	        0.0701788440	
        0.5800000000	       23.2770113956	       35.0415442351	       -3.1186773563	       -8.5210630903	     -169.2758868769	        8.1679675122	      -19.7843380082	       -9.2641497363	       -1.0069528393	       -2.4988676419	        2.7051061839	       -0.5784911466	        0.1453163271	       42.9436435611	        5.4927091123	        2.1453021107	       -2.5043543993	      -28.2776479703	        7.1756190665	        0.1157456973	       -9.9107816431	      -15.4204419366	       16.1643458500	       -0.1915520010	        0.7024354823	        1.3155743630	       -0.8907385599	        0.0728901121	        0.1390932618	        0.1405270491	       -4.5505635583	       -0.6532920812	       -0.7800995551	       -1.6261338362	       -0.0124320200	       -0.1435701662	        0.1289490111	
        0.5850000000	       17.5262196729	       15.4092554404	       -2.0351602614	      -16.7625066797	     -171.5135005292	       16.3695844261	      -20.5004278118	       -6.7497531829	       -1.9160226771	       -3.1028381224	        2.7290535486	       -0.5870759215	        0.1497767449	       25.7041704652	        6.4914749551	        0.2403691046	      -11.8763609061	      -23.5092599269	        5.8679414950	        0.1822151902	      -12.6249553378	      -16.4869922737	       13.4102760462	       -0.9669156507	        0.0875820140	        0.9364854140	       -1.2702478717	        0.0715316062	        0.0946501333	        0.1687523941	       -4.9444820476	       -0.2442993936	       -0.3766868505	       -2.0602448467	        0.0060723668	       -0.1120740781	        0.1776180926	
        0.5900000000	       12.3024600042	       -3.0535423649	       -2.2413919402	      -26.2180407432	     -143.2607378688	       20.2030192137	      -21.5917736145	       -3.3567519652	       -2.9148145695	       -4.2761412036	        2.7279946185	       -0.5907824189	        0.1523506079	       11.7730118750	        7.9792252820	       -0.1830561932	      -18.7985627620	      -19.4150081670	        4.5735293938	        0.2511204764	      -14.8147803980	      -17.2498691510	       10.2034998994	       -1.6509061854	       -0.5384761659	        0.5143663623	       -1.4864099706	        0.0642201012	        0.0485712369	        0.1827366001	       -5.1544225640	        0.2655064367	        0.0796485307	       -2.3183298186	        0.0227175129	       -0.0715520757	        0.2128015350	
